# xmcd CD database file
#
# Track frame offsets:
#	150
#	48119
#	69659
#	96404
#	127385
#	158897
#	194125
#	208529
#	240648
#	253015
#	266316
#	280671
#	310069
#	329018
#
# Disc length: 4756 seconds
#
# Revision: 1
# Processed by: cddbd v1.5.2PL0 Copyright (c) Steve Scherf et al.
# Submitted via: CDex 1.51
#
DISCID=d712920e
DTITLE=Bob Brookmeyer - 4 Classik Albums
DYEAR=1900
DGENRE=Jazz
TTITLE0=Minuet Circa
TTITLE1=Who Could Care
TTITLE2=Nice Work If You Can Get It
TTITLE3=Thump, Thump, Thump
TTITLE4=A Nightingale Sang In Berkeley Square
TTITLE5=Love Jumped Out
TTITLE6=Oh, Jane Snavely
TTITLE7=Nature Boy
TTITLE8=Just You, Just Me
TTITLE9=I`m Old Fashioned
TTITLE10=Gone Latin
TTITLE11=Zing Went The Strings Of My Heart
TTITLE12=Big City Life
TTITLE13=Open Country
EXTD=
EXTT0=
EXTT1=
EXTT2=
EXTT3=
EXTT4=
EXTT5=
EXTT6=
EXTT7=
EXTT8=
EXTT9=
EXTT10=
EXTT11=
EXTT12=
EXTT13=
PLAYORDER=
